<svg xmlns="http://www.w3.org/2000/svg" xmlns:xlink="http://www.w3.org/1999/xlink" width="500" zoomAndPan="magnify" viewBox="0 0 375 374.999991" height="500" preserveAspectRatio="xMidYMid meet" version="1.0"><defs><g/></defs><g fill="#2b2b2b" fill-opacity="1"><g transform="translate(6.223537, 181.176622)"><g><path d="M 46.648438 -36.679688 C 44.90625 -39.195312 41.617188 -40.359375 38.90625 -38.710938 C 36.003906 -37.066406 35.617188 -33.777344 36.875 -30.96875 C 37.453125 -29.613281 37.550781 -28.164062 37.648438 -26.613281 C 37.746094 -23.226562 37.359375 -19.550781 35.617188 -16.453125 C 35.035156 -15.292969 34.066406 -14.128906 33.097656 -13.257812 C 30.484375 -10.9375 27.097656 -9.679688 23.519531 -9.582031 C 23.128906 -9.582031 22.648438 -9.679688 22.257812 -9.679688 C 15.96875 -10.066406 12.582031 -15.484375 10.742188 -21.195312 C 10.066406 -23.324219 9.679688 -25.550781 9.773438 -27.875 C 9.773438 -28.355469 9.773438 -28.9375 9.871094 -29.421875 C 9.871094 -30.003906 9.96875 -30.003906 10.066406 -30.777344 C 11.613281 -39.003906 15.195312 -45.585938 21.777344 -50.617188 C 22.257812 -50.90625 22.648438 -51.199219 23.035156 -51.488281 L 23.613281 -32.808594 C 23.710938 -29.710938 23.613281 -26.519531 24.96875 -23.519531 C 26.035156 -21.195312 28.648438 -19.550781 31.164062 -19.839844 C 33.195312 -20.035156 32.808594 -23.035156 30.777344 -22.648438 C 27.96875 -22.164062 26.613281 -25.261719 26.035156 -27.484375 L 26.035156 -27.777344 L 26.324219 -27.777344 C 26.519531 -27.195312 26.710938 -26.519531 27.097656 -25.9375 C 27.679688 -24.777344 28.550781 -23.808594 29.808594 -23.421875 C 30.003906 -23.421875 30.292969 -23.324219 30.582031 -23.421875 C 30.679688 -23.226562 30.875 -23.128906 31.164062 -22.9375 C 31.648438 -22.648438 32.421875 -22.9375 32.519531 -23.519531 C 32.808594 -24.777344 32.617188 -26.132812 32.617188 -27.484375 C 32.519531 -29.035156 32.421875 -30.679688 32.421875 -32.324219 L 32.132812 -41.519531 C 32.035156 -44.617188 31.9375 -54.101562 32.132812 -55.746094 C 32.226562 -57.199219 32.324219 -58.359375 31.746094 -59.519531 C 31.746094 -61.164062 30.484375 -62.617188 28.453125 -62.8125 C 26.132812 -63.003906 23.710938 -62.328125 21.777344 -61.164062 C 19.742188 -60.003906 17.808594 -58.746094 15.96875 -57.390625 C 12 -54.585938 7.742188 -50.230469 4.839844 -46.359375 C 0.484375 -40.746094 -0.96875 -33.777344 -1.066406 -26.710938 C -1.066406 -24.582031 -0.773438 -22.453125 -0.386719 -20.421875 C 1.453125 -11.902344 7.742188 -4.839844 15.679688 -1.644531 C 23.808594 1.644531 33.390625 -0.484375 39.972656 -5.808594 C 44.035156 -9 46.457031 -14.128906 47.714844 -19.066406 C 49.164062 -24.484375 49.84375 -31.746094 46.648438 -36.679688 Z M 24.96875 -52.84375 C 24.679688 -49.261719 24.679688 -45.679688 24.871094 -42.101562 L 24.390625 -42.101562 C 24.097656 -45.292969 23.710938 -48.488281 23.421875 -51.777344 C 23.90625 -52.070312 24.484375 -52.457031 24.96875 -52.84375 Z M 36.777344 -31.164062 C 36.777344 -31.261719 36.679688 -31.355469 36.679688 -31.355469 C 36.679688 -31.261719 36.777344 -31.261719 36.777344 -31.164062 Z M 36.875 -30.96875 C 36.875 -31.066406 36.777344 -31.066406 36.777344 -31.164062 C 36.777344 -31.066406 36.777344 -31.066406 36.875 -30.96875 Z M 36.875 -30.96875 "/></g></g></g><g fill="#2b2b2b" fill-opacity="1"><g transform="translate(47.742195, 181.176622)"><g><path d="M 46.648438 -36.679688 C 44.90625 -39.195312 41.617188 -40.359375 38.90625 -38.710938 C 36.003906 -37.066406 35.617188 -33.777344 36.875 -30.96875 C 37.453125 -29.613281 37.550781 -28.164062 37.648438 -26.613281 C 37.746094 -23.226562 37.359375 -19.550781 35.617188 -16.453125 C 35.035156 -15.292969 34.066406 -14.128906 33.097656 -13.257812 C 30.484375 -10.9375 27.097656 -9.679688 23.519531 -9.582031 C 23.128906 -9.582031 22.648438 -9.679688 22.257812 -9.679688 C 15.96875 -10.066406 12.582031 -15.484375 10.742188 -21.195312 C 10.066406 -23.324219 9.679688 -25.550781 9.773438 -27.875 C 9.773438 -28.355469 9.773438 -28.9375 9.871094 -29.421875 C 9.871094 -30.003906 9.96875 -30.003906 10.066406 -30.777344 C 11.613281 -39.003906 15.195312 -45.585938 21.777344 -50.617188 C 22.257812 -50.90625 22.648438 -51.199219 23.035156 -51.488281 L 23.613281 -32.808594 C 23.710938 -29.710938 23.613281 -26.519531 24.96875 -23.519531 C 26.035156 -21.195312 28.648438 -19.550781 31.164062 -19.839844 C 33.195312 -20.035156 32.808594 -23.035156 30.777344 -22.648438 C 27.96875 -22.164062 26.613281 -25.261719 26.035156 -27.484375 L 26.035156 -27.777344 L 26.324219 -27.777344 C 26.519531 -27.195312 26.710938 -26.519531 27.097656 -25.9375 C 27.679688 -24.777344 28.550781 -23.808594 29.808594 -23.421875 C 30.003906 -23.421875 30.292969 -23.324219 30.582031 -23.421875 C 30.679688 -23.226562 30.875 -23.128906 31.164062 -22.9375 C 31.648438 -22.648438 32.421875 -22.9375 32.519531 -23.519531 C 32.808594 -24.777344 32.617188 -26.132812 32.617188 -27.484375 C 32.519531 -29.035156 32.421875 -30.679688 32.421875 -32.324219 L 32.132812 -41.519531 C 32.035156 -44.617188 31.9375 -54.101562 32.132812 -55.746094 C 32.226562 -57.199219 32.324219 -58.359375 31.746094 -59.519531 C 31.746094 -61.164062 30.484375 -62.617188 28.453125 -62.8125 C 26.132812 -63.003906 23.710938 -62.328125 21.777344 -61.164062 C 19.742188 -60.003906 17.808594 -58.746094 15.96875 -57.390625 C 12 -54.585938 7.742188 -50.230469 4.839844 -46.359375 C 0.484375 -40.746094 -0.96875 -33.777344 -1.066406 -26.710938 C -1.066406 -24.582031 -0.773438 -22.453125 -0.386719 -20.421875 C 1.453125 -11.902344 7.742188 -4.839844 15.679688 -1.644531 C 23.808594 1.644531 33.390625 -0.484375 39.972656 -5.808594 C 44.035156 -9 46.457031 -14.128906 47.714844 -19.066406 C 49.164062 -24.484375 49.84375 -31.746094 46.648438 -36.679688 Z M 24.96875 -52.84375 C 24.679688 -49.261719 24.679688 -45.679688 24.871094 -42.101562 L 24.390625 -42.101562 C 24.097656 -45.292969 23.710938 -48.488281 23.421875 -51.777344 C 23.90625 -52.070312 24.484375 -52.457031 24.96875 -52.84375 Z M 36.777344 -31.164062 C 36.777344 -31.261719 36.679688 -31.355469 36.679688 -31.355469 C 36.679688 -31.261719 36.777344 -31.261719 36.777344 -31.164062 Z M 36.875 -30.96875 C 36.875 -31.066406 36.777344 -31.066406 36.777344 -31.164062 C 36.777344 -31.066406 36.777344 -31.066406 36.875 -30.96875 Z M 36.875 -30.96875 "/></g></g></g><g fill="#2b2b2b" fill-opacity="1"><g transform="translate(89.260853, 181.176622)"><g><path d="M 55.164062 -36.875 C 55.457031 -39.003906 54.875 -40.746094 53.328125 -41.90625 C 52.070312 -42.875 50.714844 -43.9375 49.359375 -44.90625 C 49.164062 -45.679688 48.777344 -46.457031 48.003906 -47.035156 C 38.519531 -53.421875 28.9375 -60.003906 18.292969 -63.390625 C 18.195312 -63.390625 18.097656 -63.488281 18 -63.488281 C 17.324219 -63.777344 16.644531 -63.972656 15.96875 -64.261719 C 15.773438 -64.457031 15.484375 -64.648438 15.097656 -64.648438 C 11.902344 -65.230469 6.097656 -66.488281 4.257812 -62.90625 C 3.195312 -60.683594 4.257812 -57.972656 6.097656 -56.421875 C 5.515625 -55.550781 4.839844 -54.875 4.066406 -54.292969 C 4.839844 -51.003906 5.515625 -47.617188 6.195312 -44.324219 C 5.613281 -44.324219 5.03125 -44.324219 4.453125 -44.230469 C 1.546875 -44.230469 0.386719 -39.390625 3.097656 -37.648438 C 3.96875 -37.066406 5.03125 -36.488281 6 -36.097656 L 3.773438 -35.808594 C 4.839844 -35.421875 5.902344 -35.035156 6.96875 -34.746094 C 7.355469 -34.648438 7.550781 -34.355469 7.550781 -34.066406 C 7.742188 -34.066406 7.9375 -34.066406 8.128906 -34.066406 L 8.710938 -30.679688 C 9.484375 -26.132812 10.257812 -21.582031 11.03125 -17.035156 L 11.902344 -10.644531 C 12.097656 -8.515625 11.902344 -6.195312 12.386719 -4.160156 C 12.386719 -3.097656 13.355469 -2.417969 14.128906 -2.613281 C 14.226562 -2.03125 14.421875 -1.546875 14.710938 -1.066406 C 15.871094 0.289062 17.808594 0.195312 19.066406 -0.871094 C 20.035156 -1.644531 20.710938 -2.613281 21.292969 -3.773438 C 21.292969 -4.257812 21.292969 -4.839844 21.195312 -5.417969 C 21.484375 -10.160156 21 -15.097656 20.710938 -19.839844 C 20.519531 -24.292969 20.128906 -28.742188 19.648438 -33.097656 C 22.164062 -33.003906 24.777344 -32.808594 27.292969 -32.710938 C 27.777344 -31.839844 28.355469 -30.875 28.9375 -30.003906 L 28.9375 -29.90625 C 29.519531 -28.9375 30.003906 -27.96875 30.484375 -26.90625 C 32.324219 -23.324219 34.9375 -16.9375 36.003906 -14.421875 C 37.9375 -9.96875 39.875 -5.417969 41.617188 -0.871094 C 42.003906 -0.675781 42.582031 -0.871094 42.875 -1.160156 C 42.875 -1.066406 42.972656 -1.066406 43.066406 -1.066406 C 43.9375 -0.675781 44.808594 -0.675781 45.679688 -0.773438 C 47.324219 -0.0976562 49.550781 -0.582031 49.84375 -2.710938 C 50.617188 -9 47.230469 -15.097656 44.617188 -20.613281 C 42.582031 -24.777344 40.261719 -28.742188 37.648438 -32.617188 C 42.195312 -32.226562 46.746094 -31.839844 51.292969 -31.550781 C 52.84375 -31.355469 54.679688 -33.003906 54.875 -34.839844 Z M 15.871094 -51.679688 L 15.582031 -53.230469 C 23.90625 -51.292969 31.648438 -47.132812 39.101562 -42.003906 L 29.710938 -43.164062 C 27.484375 -45.003906 24.292969 -47.617188 21.390625 -45.777344 C 20.90625 -45.390625 20.613281 -44.808594 20.519531 -44.324219 C 20.035156 -44.421875 19.453125 -44.421875 18.96875 -44.519531 C 18.582031 -46.550781 18.097656 -48.585938 17.613281 -50.617188 C 17.515625 -51.488281 16.550781 -51.488281 16.066406 -51.003906 C 15.96875 -51.199219 15.96875 -51.488281 15.871094 -51.679688 Z M 22.742188 -8.128906 C 23.128906 -10.453125 23.90625 -11.421875 23.613281 -14.90625 C 23.128906 -20.710938 22.648438 -26.519531 21.679688 -32.132812 L 20.90625 -32.132812 C 22.066406 -24.195312 22.355469 -16.164062 22.742188 -8.128906 Z M 22.742188 -8.128906 "/></g></g></g><g fill="#2b2b2b" fill-opacity="1"><g transform="translate(137.554141, 181.176622)"><g><path d="M 2.226562 -51.101562 C 2.03125 -50.90625 2.03125 -50.617188 2.226562 -50.519531 C 4.355469 -51.488281 6.484375 -52.359375 8.710938 -53.035156 C 15.097656 -55.261719 21.679688 -56.714844 28.261719 -58.164062 C 32.035156 -59.035156 35.90625 -60.003906 39.679688 -60.972656 C 38.808594 -60.972656 37.9375 -60.972656 37.066406 -60.875 C 32.90625 -60.585938 28.9375 -59.8125 24.96875 -59.035156 L 22.742188 -58.457031 C 15.773438 -56.617188 8.613281 -54.488281 2.226562 -51.101562 Z M 56.519531 -11.710938 C 57.683594 -12.582031 58.457031 -13.9375 58.359375 -15.679688 C 57.972656 -21.195312 56.132812 -29.710938 48.679688 -28.164062 C 47.617188 -27.875 46.648438 -27.390625 45.585938 -27.097656 L 41.808594 -25.9375 C 39.488281 -25.164062 37.164062 -24.292969 34.839844 -23.421875 C 33.390625 -22.9375 31.9375 -22.355469 30.484375 -21.777344 L 22.257812 -18.582031 C 20.128906 -17.710938 18 -16.839844 15.871094 -15.871094 L 15.582031 -15.679688 C 15.582031 -15.871094 15.582031 -15.96875 15.582031 -16.066406 L 15 -22.355469 C 17.710938 -23.710938 20.324219 -25.066406 23.128906 -26.226562 C 27.679688 -28.164062 32.226562 -29.613281 36.875 -30.875 C 39.195312 -31.453125 41.617188 -31.9375 43.9375 -32.324219 C 46.164062 -32.808594 48.292969 -32.710938 50.328125 -33.679688 C 52.070312 -34.550781 53.230469 -36.679688 52.84375 -38.519531 C 52.648438 -39.488281 52.070312 -40.453125 51.199219 -40.9375 C 51.101562 -40.9375 51.101562 -40.9375 51.003906 -41.035156 C 50.90625 -41.421875 50.714844 -41.808594 50.519531 -42.195312 C 50.421875 -42.390625 50.328125 -42.679688 50.132812 -42.972656 C 48.777344 -45.292969 46.457031 -45.390625 44.035156 -45.292969 C 42.875 -45.195312 41.808594 -45.101562 40.648438 -44.90625 L 39.390625 -44.617188 C 36.292969 -43.746094 33.097656 -42.875 30.003906 -42.101562 C 24.484375 -40.066406 19.164062 -37.746094 13.742188 -35.421875 C 13.742188 -35.90625 13.164062 -39.390625 13.066406 -40.359375 L 13.257812 -40.550781 C 16.257812 -41.808594 19.355469 -42.972656 22.453125 -44.035156 C 23.519531 -44.519531 33.097656 -47.421875 38.035156 -48.777344 C 38.230469 -48.777344 38.421875 -48.875 38.617188 -48.972656 C 40.839844 -49.550781 43.066406 -50.230469 45.195312 -50.90625 L 50.035156 -52.359375 C 50.421875 -54.292969 50.132812 -56.328125 49.457031 -58.359375 C 48.972656 -58.746094 48.390625 -59.230469 47.90625 -59.617188 L 46.359375 -60.199219 C 45.777344 -60.390625 45.101562 -60.488281 44.421875 -60.585938 C 39.390625 -59.230469 34.355469 -57.875 29.226562 -56.714844 C 22.648438 -55.359375 16.066406 -53.90625 9.679688 -51.679688 C 7.644531 -51.003906 5.515625 -50.230469 3.484375 -49.359375 C 3.386719 -49.066406 3.195312 -48.777344 3.097656 -48.585938 C 1.742188 -47.421875 0.871094 -45.972656 0.675781 -44.035156 C 0.484375 -42.390625 1.066406 -40.550781 2.226562 -39.292969 L 3.386719 -28.261719 L 4.546875 -16.644531 C 4.839844 -13.257812 5.03125 -9.773438 5.613281 -6.484375 C 4.742188 -3.96875 6.386719 -1.066406 8.808594 -0.0976562 C 8.710938 0.386719 8.710938 0.773438 8.902344 1.257812 C 9.679688 2.902344 11.421875 3 12.96875 2.710938 C 13.355469 2.710938 13.9375 2.613281 13.9375 2.613281 C 13.839844 2.710938 19.355469 1.066406 20.519531 0.289062 L 20.613281 0.195312 C 21.679688 -0.289062 22.742188 -0.675781 23.808594 -1.160156 C 24 -1.257812 24.292969 -1.355469 24.484375 -1.453125 L 24.582031 -1.453125 C 27.777344 -2.808594 31.066406 -3.96875 34.355469 -5.128906 C 41.230469 -7.550781 48.390625 -9.386719 55.550781 -10.742188 C 56.132812 -10.839844 56.421875 -11.226562 56.519531 -11.710938 Z M 33.097656 -32.226562 L 33.195312 -31.9375 C 32.617188 -31.746094 32.132812 -31.550781 31.550781 -31.261719 C 26.710938 -29.324219 21.679688 -27.484375 16.9375 -25.066406 C 17.710938 -25.742188 18.292969 -26.710938 18.484375 -27.777344 C 20.324219 -28.261719 22.164062 -28.839844 24.097656 -29.421875 C 27.097656 -30.390625 30.097656 -31.261719 33.097656 -32.226562 Z M 11.710938 1.257812 C 13.644531 0.773438 15.484375 0 17.324219 -0.675781 C 19.164062 -1.257812 20.90625 -1.9375 22.648438 -2.613281 L 22.648438 -2.417969 C 21.195312 -1.644531 19.742188 -0.871094 18.195312 -0.0976562 C 17.515625 0.289062 16.742188 0.675781 15.96875 1.066406 C 15.871094 1.160156 15.773438 1.160156 15.679688 1.160156 C 15.386719 1.257812 13.164062 1.453125 11.710938 1.257812 Z M 11.710938 1.257812 "/></g></g></g><g fill="#2b2b2b" fill-opacity="1"><g transform="translate(186.815225, 181.176622)"><g><path d="M 35.421875 -2.902344 C 37.648438 4.066406 44.808594 3.871094 43.746094 -4.839844 C 42.972656 -10.644531 41.324219 -18.484375 40.066406 -24.195312 C 45.390625 -27.582031 44.324219 -36.292969 36.96875 -37.164062 C 36.292969 -42.972656 35.710938 -57.585938 35.617188 -56.617188 C 35.226562 -53.421875 35.035156 -50.035156 34.9375 -46.746094 C 34.839844 -46.746094 34.839844 -46.746094 34.746094 -46.84375 C 34.355469 -50.617188 33.96875 -54.585938 33.679688 -58.457031 C 33.390625 -61.554688 31.355469 -63.488281 28.550781 -63.683594 C 27.777344 -65.230469 25.839844 -66.390625 24.195312 -66.296875 C 19.257812 -66.199219 17.324219 -60.199219 15.582031 -56.421875 C 13.066406 -50.421875 11.515625 -44.132812 10.160156 -37.746094 C -1.355469 -36.003906 -1.355469 -25.453125 4.839844 -23.90625 C 4.9375 -23.613281 4.839844 -23.226562 4.742188 -23.035156 C 5.515625 -23.035156 6.484375 -23.128906 7.355469 -23.226562 C 5.902344 -17.613281 4.9375 -12 4.160156 -6.289062 C 2.902344 2.808594 14.90625 4.160156 15.679688 -4.644531 L 16.257812 -9 C 16.257812 -9 17.90625 -18.871094 19.164062 -23.613281 L 20.035156 -23.613281 C 18.195312 -17.90625 17.324219 -12 16.839844 -6.195312 C 16.742188 -5.03125 18.386719 -5.03125 18.386719 -6.195312 C 18.871094 -12.097656 19.9375 -17.808594 21.390625 -23.613281 L 28.9375 -23.710938 C 29.710938 -20.226562 33.582031 -3.582031 35.421875 -2.902344 Z M 21.097656 -36.195312 C 21.96875 -40.746094 23.128906 -44.617188 24.679688 -50.035156 C 25.648438 -45.585938 26.132812 -39.003906 26.519531 -36.582031 C 25.164062 -36.488281 22.453125 -36.390625 21.097656 -36.195312 Z M 21.097656 -36.195312 "/></g></g></g><g fill="#2b2b2b" fill-opacity="1"><g transform="translate(223.398084, 181.176622)"><g><path d="M 46.359375 -35.132812 C 46.261719 -37.453125 46.261719 -39.777344 46.359375 -42.195312 C 46.746094 -46.746094 47.714844 -51.488281 47.132812 -56.035156 C 46.84375 -58.648438 45.195312 -60.777344 42.390625 -60.777344 C 39.875 -60.777344 37.648438 -58.648438 37.648438 -56.035156 C 37.746094 -54.390625 37.746094 -52.746094 37.746094 -51.101562 L 37.261719 -51.585938 C 35.324219 -53.328125 33.195312 -54.777344 31.066406 -56.132812 C 26.519531 -59.132812 21.777344 -61.261719 16.550781 -62.8125 C 15.96875 -63.003906 15.484375 -63.003906 15.097656 -62.90625 C 13.066406 -63.585938 10.9375 -64.167969 8.808594 -64.359375 C 5.515625 -64.648438 2.710938 -62.617188 1.9375 -59.421875 C 1.160156 -56.230469 2.902344 -53.421875 4.644531 -51.003906 C 8.226562 -46.359375 12.386719 -42.292969 16.9375 -38.617188 L 18.386719 -37.453125 C 19.742188 -36.097656 21.097656 -34.746094 22.355469 -33.292969 C 25.648438 -29.90625 28.742188 -26.421875 31.746094 -22.839844 C 32.710938 -21.679688 33.679688 -20.519531 34.550781 -19.355469 C 34.746094 -18.777344 35.035156 -18.292969 35.226562 -17.808594 C 35.617188 -17.035156 36.488281 -15.195312 36.003906 -14.128906 C 36.003906 -13.839844 36.003906 -13.550781 35.710938 -13.257812 C 34.9375 -12.097656 33.003906 -11.902344 31.746094 -11.808594 C 29.613281 -11.613281 27.582031 -11.613281 25.550781 -11.808594 C 24.390625 -11.902344 23.226562 -12.097656 22.066406 -12.484375 C 20.90625 -13.355469 19.839844 -14.421875 18.871094 -15.386719 C 17.128906 -17.226562 15.96875 -19.648438 15.097656 -21.96875 C 12.871094 -28.355469 12.582031 -35.226562 10.550781 -41.617188 C 9.773438 -43.9375 7.839844 -44.808594 5.515625 -44.519531 C 3.582031 -44.230469 2.128906 -42.390625 1.742188 -40.648438 C 1.160156 -37.839844 1.742188 -34.839844 2.128906 -32.132812 C 2.515625 -29.035156 2.902344 -25.9375 3.675781 -22.9375 C 5.128906 -17.613281 6.195312 -12.195312 6.773438 -6.773438 C 6.96875 -5.808594 7.257812 -4.9375 7.839844 -4.257812 C 8.128906 -2.515625 9.097656 -0.871094 10.160156 0.195312 C 11.128906 1.160156 12.679688 1.160156 13.644531 0.195312 C 14.90625 -0.871094 15.582031 -2.417969 15.96875 -4.066406 C 17.808594 -2.902344 19.839844 -2.03125 21.96875 -1.546875 C 25.066406 -0.675781 28.742188 -0.289062 32.035156 -0.773438 L 32.324219 -0.773438 C 38.421875 -1.066406 45.003906 -5.613281 45.195312 -11.902344 C 45.585938 -14.421875 45.003906 -17.035156 43.9375 -19.453125 C 43.359375 -22.066406 42.003906 -24.484375 40.261719 -26.710938 C 37.746094 -29.90625 34.839844 -32.90625 32.035156 -35.90625 C 29.132812 -39.101562 26.035156 -42.195312 22.9375 -45.195312 L 18.96875 -48.972656 C 21.484375 -48.390625 24.097656 -47.519531 26.519531 -46.457031 C 31.164062 -44.324219 35.421875 -41.324219 38.230469 -37.164062 C 38.324219 -37.164062 38.324219 -37.066406 38.421875 -37.066406 C 39.003906 -32.519531 40.648438 -26.132812 45.390625 -27.292969 C 46.746094 -27.679688 47.519531 -29.132812 47.132812 -30.390625 C 46.84375 -32.035156 46.457031 -33.488281 46.359375 -35.132812 Z M 46.359375 -35.132812 "/></g></g></g><g fill="#2b2b2b" fill-opacity="1"><g transform="translate(263.852165, 181.176622)"><g><path d="M 2.226562 -51.101562 C 2.03125 -50.90625 2.03125 -50.617188 2.226562 -50.519531 C 4.355469 -51.488281 6.484375 -52.359375 8.710938 -53.035156 C 15.097656 -55.261719 21.679688 -56.714844 28.261719 -58.164062 C 32.035156 -59.035156 35.90625 -60.003906 39.679688 -60.972656 C 38.808594 -60.972656 37.9375 -60.972656 37.066406 -60.875 C 32.90625 -60.585938 28.9375 -59.8125 24.96875 -59.035156 L 22.742188 -58.457031 C 15.773438 -56.617188 8.613281 -54.488281 2.226562 -51.101562 Z M 56.519531 -11.710938 C 57.683594 -12.582031 58.457031 -13.9375 58.359375 -15.679688 C 57.972656 -21.195312 56.132812 -29.710938 48.679688 -28.164062 C 47.617188 -27.875 46.648438 -27.390625 45.585938 -27.097656 L 41.808594 -25.9375 C 39.488281 -25.164062 37.164062 -24.292969 34.839844 -23.421875 C 33.390625 -22.9375 31.9375 -22.355469 30.484375 -21.777344 L 22.257812 -18.582031 C 20.128906 -17.710938 18 -16.839844 15.871094 -15.871094 L 15.582031 -15.679688 C 15.582031 -15.871094 15.582031 -15.96875 15.582031 -16.066406 L 15 -22.355469 C 17.710938 -23.710938 20.324219 -25.066406 23.128906 -26.226562 C 27.679688 -28.164062 32.226562 -29.613281 36.875 -30.875 C 39.195312 -31.453125 41.617188 -31.9375 43.9375 -32.324219 C 46.164062 -32.808594 48.292969 -32.710938 50.328125 -33.679688 C 52.070312 -34.550781 53.230469 -36.679688 52.84375 -38.519531 C 52.648438 -39.488281 52.070312 -40.453125 51.199219 -40.9375 C 51.101562 -40.9375 51.101562 -40.9375 51.003906 -41.035156 C 50.90625 -41.421875 50.714844 -41.808594 50.519531 -42.195312 C 50.421875 -42.390625 50.328125 -42.679688 50.132812 -42.972656 C 48.777344 -45.292969 46.457031 -45.390625 44.035156 -45.292969 C 42.875 -45.195312 41.808594 -45.101562 40.648438 -44.90625 L 39.390625 -44.617188 C 36.292969 -43.746094 33.097656 -42.875 30.003906 -42.101562 C 24.484375 -40.066406 19.164062 -37.746094 13.742188 -35.421875 C 13.742188 -35.90625 13.164062 -39.390625 13.066406 -40.359375 L 13.257812 -40.550781 C 16.257812 -41.808594 19.355469 -42.972656 22.453125 -44.035156 C 23.519531 -44.519531 33.097656 -47.421875 38.035156 -48.777344 C 38.230469 -48.777344 38.421875 -48.875 38.617188 -48.972656 C 40.839844 -49.550781 43.066406 -50.230469 45.195312 -50.90625 L 50.035156 -52.359375 C 50.421875 -54.292969 50.132812 -56.328125 49.457031 -58.359375 C 48.972656 -58.746094 48.390625 -59.230469 47.90625 -59.617188 L 46.359375 -60.199219 C 45.777344 -60.390625 45.101562 -60.488281 44.421875 -60.585938 C 39.390625 -59.230469 34.355469 -57.875 29.226562 -56.714844 C 22.648438 -55.359375 16.066406 -53.90625 9.679688 -51.679688 C 7.644531 -51.003906 5.515625 -50.230469 3.484375 -49.359375 C 3.386719 -49.066406 3.195312 -48.777344 3.097656 -48.585938 C 1.742188 -47.421875 0.871094 -45.972656 0.675781 -44.035156 C 0.484375 -42.390625 1.066406 -40.550781 2.226562 -39.292969 L 3.386719 -28.261719 L 4.546875 -16.644531 C 4.839844 -13.257812 5.03125 -9.773438 5.613281 -6.484375 C 4.742188 -3.96875 6.386719 -1.066406 8.808594 -0.0976562 C 8.710938 0.386719 8.710938 0.773438 8.902344 1.257812 C 9.679688 2.902344 11.421875 3 12.96875 2.710938 C 13.355469 2.710938 13.9375 2.613281 13.9375 2.613281 C 13.839844 2.710938 19.355469 1.066406 20.519531 0.289062 L 20.613281 0.195312 C 21.679688 -0.289062 22.742188 -0.675781 23.808594 -1.160156 C 24 -1.257812 24.292969 -1.355469 24.484375 -1.453125 L 24.582031 -1.453125 C 27.777344 -2.808594 31.066406 -3.96875 34.355469 -5.128906 C 41.230469 -7.550781 48.390625 -9.386719 55.550781 -10.742188 C 56.132812 -10.839844 56.421875 -11.226562 56.519531 -11.710938 Z M 33.097656 -32.226562 L 33.195312 -31.9375 C 32.617188 -31.746094 32.132812 -31.550781 31.550781 -31.261719 C 26.710938 -29.324219 21.679688 -27.484375 16.9375 -25.066406 C 17.710938 -25.742188 18.292969 -26.710938 18.484375 -27.777344 C 20.324219 -28.261719 22.164062 -28.839844 24.097656 -29.421875 C 27.097656 -30.390625 30.097656 -31.261719 33.097656 -32.226562 Z M 11.710938 1.257812 C 13.644531 0.773438 15.484375 0 17.324219 -0.675781 C 19.164062 -1.257812 20.90625 -1.9375 22.648438 -2.613281 L 22.648438 -2.417969 C 21.195312 -1.644531 19.742188 -0.871094 18.195312 -0.0976562 C 17.515625 0.289062 16.742188 0.675781 15.96875 1.066406 C 15.871094 1.160156 15.773438 1.160156 15.679688 1.160156 C 15.386719 1.257812 13.164062 1.453125 11.710938 1.257812 Z M 11.710938 1.257812 "/></g></g></g><g fill="#2b2b2b" fill-opacity="1"><g transform="translate(313.113262, 181.176622)"><g><path d="M 55.746094 -8.808594 C 57.875 -13.839844 55.746094 -19.355469 53.421875 -23.90625 C 51.585938 -27.582031 49.261719 -30.96875 46.84375 -34.164062 C 45.390625 -36.097656 43.746094 -37.9375 42.101562 -39.679688 C 37.453125 -45.003906 32.421875 -49.9375 27.390625 -54.777344 C 22.839844 -59.132812 18.195312 -63.390625 11.710938 -63.875 C 9.484375 -64.070312 5.03125 -63.296875 4.160156 -60.777344 C 3.773438 -60.777344 3.289062 -60.683594 2.808594 -60.585938 C 1.066406 -60.292969 -0.386719 -58.648438 0.195312 -56.714844 C 0.289062 -56.421875 0.484375 -56.035156 0.582031 -55.648438 C 2.808594 -44.90625 5.03125 -34.164062 7.160156 -23.324219 C 7.453125 -22.164062 7.644531 -21.097656 7.839844 -19.9375 L 7.453125 -20.226562 C 4.742188 -21.777344 1.066406 -20.808594 -0.484375 -18.097656 C -2.128906 -15.386719 -1.257812 -11.613281 1.546875 -10.066406 C 4.546875 -8.515625 7.550781 -7.160156 10.644531 -5.902344 C 11.128906 -3.582031 11.808594 -2.03125 13.9375 -0.582031 C 14.90625 0.0976562 16.257812 0.289062 17.515625 0.195312 C 18.195312 0.195312 18.679688 -0.0976562 19.066406 -0.484375 C 19.453125 -0.289062 19.9375 -0.195312 20.421875 -0.289062 C 21.195312 -0.484375 21.871094 -1.160156 22.257812 -2.03125 C 24.582031 -1.453125 27.003906 -0.96875 29.421875 -0.582031 C 34.550781 0.195312 39.582031 0.386719 44.617188 -0.773438 C 48.972656 -1.839844 53.90625 -4.546875 55.746094 -8.808594 Z M 3.582031 -48.585938 C 4.839844 -44.421875 9 -27.195312 10.257812 -22.648438 C 10.644531 -21 11.226562 -19.355469 11.808594 -17.710938 C 11.226562 -18 10.644531 -18.386719 10.066406 -18.679688 L 7.453125 -29.035156 C 5.710938 -35.710938 4.355469 -42.390625 2.710938 -49.066406 C 2.417969 -50.421875 3.484375 -48.972656 3.582031 -48.585938 Z M 44.617188 -19.066406 C 45.292969 -18 45.875 -16.742188 46.457031 -15.582031 C 47.035156 -14.421875 47.617188 -13.355469 47.808594 -12.097656 C 46.746094 -11.128906 45.390625 -10.644531 43.746094 -10.257812 C 41.710938 -9.679688 40.261719 -9.679688 37.9375 -9.679688 C 35.421875 -9.773438 34.164062 -9.96875 31.648438 -10.550781 C 28.453125 -11.226562 25.355469 -12.195312 22.355469 -13.257812 C 21.871094 -16.164062 21.292969 -19.066406 20.808594 -21.96875 C 19.453125 -30.003906 18 -38.132812 16.355469 -46.164062 L 18.195312 -45.195312 C 22.742188 -42.582031 26.613281 -39.777344 30.292969 -36.390625 C 33.96875 -33.195312 37.261719 -29.519531 40.164062 -25.648438 C 41.710938 -23.519531 43.164062 -21.292969 44.617188 -19.066406 Z M 44.617188 -19.066406 "/></g></g></g><g fill="#2b2b2b" fill-opacity="1"><g transform="translate(132.420695, 200.810717)"><g><path d="M 2.785156 0 L 5.347656 0 L 5.347656 -5.152344 L 8.042969 -5.152344 L 8.042969 -6.949219 L 0.0859375 -6.949219 L 0.0859375 -5.152344 L 2.785156 -5.152344 Z M 2.785156 0 "/></g></g></g><g fill="#2b2b2b" fill-opacity="1"><g transform="translate(140.413593, 200.810717)"><g><path d="M 0.484375 0 L 3.046875 0 L 3.046875 -2.765625 L 6.839844 -2.765625 L 6.839844 0 L 9.414062 0 L 9.414062 -6.949219 L 6.839844 -6.949219 L 6.839844 -4.492188 L 3.046875 -4.492188 L 3.046875 -6.949219 L 0.484375 -6.949219 Z M 0.484375 0 "/></g></g></g><g fill="#2b2b2b" fill-opacity="1"><g transform="translate(150.171927, 200.810717)"><g><path d="M 0.484375 0 L 7.929688 0 L 7.929688 -1.570312 L 2.96875 -1.570312 L 2.96875 -2.863281 L 7.441406 -2.863281 L 7.441406 -4.210938 L 2.96875 -4.210938 L 2.96875 -5.375 L 7.832031 -5.375 L 7.832031 -6.949219 L 0.484375 -6.949219 Z M 0.484375 0 "/></g></g></g><g fill="#2b2b2b" fill-opacity="1"><g transform="translate(158.155129, 200.810717)"><g/></g></g><g fill="#2b2b2b" fill-opacity="1"><g transform="translate(160.289111, 200.810717)"><g><path d="M 8.09375 0.195312 C 8.722656 0.195312 9.492188 -0.0273438 9.867188 -0.347656 L 9.460938 -1.378906 C 9.34375 -1.242188 9.113281 -1.164062 8.945312 -1.164062 C 8.664062 -1.164062 8.492188 -1.28125 8.355469 -1.476562 L 7.878906 -2.191406 C 7.714844 -2.4375 7.5 -2.640625 7.269531 -2.71875 L 7.269531 -2.726562 C 8.539062 -2.96875 9.285156 -3.695312 9.285156 -4.746094 C 9.285156 -6.144531 8.210938 -6.949219 6.347656 -6.949219 L 0.484375 -6.949219 L 0.484375 0 L 3.046875 0 L 3.046875 -2.300781 L 4.484375 -2.300781 C 4.96875 -2.300781 5.386719 -2.097656 5.675781 -1.679688 L 6.085938 -1.007812 C 6.492188 -0.425781 7.027344 0.195312 8.09375 0.195312 Z M 3.046875 -3.726562 L 3.046875 -5.445312 L 5.570312 -5.445312 C 6.289062 -5.445312 6.714844 -5.125 6.714844 -4.589844 C 6.714844 -4.046875 6.289062 -3.726562 5.558594 -3.726562 Z M 3.046875 -3.726562 "/></g></g></g><g fill="#2b2b2b" fill-opacity="1"><g transform="translate(170.018344, 200.810717)"><g><path d="M 0.484375 0 L 7.929688 0 L 7.929688 -1.570312 L 2.96875 -1.570312 L 2.96875 -2.863281 L 7.441406 -2.863281 L 7.441406 -4.210938 L 2.96875 -4.210938 L 2.96875 -5.375 L 7.832031 -5.375 L 7.832031 -6.949219 L 0.484375 -6.949219 Z M 0.484375 0 "/></g></g></g><g fill="#2b2b2b" fill-opacity="1"><g transform="translate(178.001543, 200.810717)"><g><path d="M 0.484375 0 L 6.589844 0 C 8.277344 0 9.257812 -0.707031 9.257812 -1.902344 C 9.257812 -2.707031 8.761719 -3.300781 7.917969 -3.53125 L 7.917969 -3.550781 C 8.636719 -3.792969 9.0625 -4.347656 9.0625 -5.046875 C 9.0625 -6.25 8.082031 -6.949219 6.386719 -6.949219 L 0.484375 -6.949219 Z M 3.046875 -4.144531 L 3.046875 -5.558594 L 5.53125 -5.558594 C 6.132812 -5.558594 6.5 -5.296875 6.5 -4.851562 C 6.5 -4.40625 6.132812 -4.144531 5.53125 -4.144531 Z M 3.039062 -1.386719 L 3.039062 -2.902344 L 5.667969 -2.902344 C 6.308594 -2.902344 6.695312 -2.621094 6.695312 -2.136719 C 6.695312 -1.667969 6.308594 -1.386719 5.667969 -1.386719 Z M 3.039062 -1.386719 "/></g></g></g><g fill="#2b2b2b" fill-opacity="1"><g transform="translate(187.352468, 200.810717)"><g><path d="M 8.09375 0.195312 C 8.722656 0.195312 9.492188 -0.0273438 9.867188 -0.347656 L 9.460938 -1.378906 C 9.34375 -1.242188 9.113281 -1.164062 8.945312 -1.164062 C 8.664062 -1.164062 8.492188 -1.28125 8.355469 -1.476562 L 7.878906 -2.191406 C 7.714844 -2.4375 7.5 -2.640625 7.269531 -2.71875 L 7.269531 -2.726562 C 8.539062 -2.96875 9.285156 -3.695312 9.285156 -4.746094 C 9.285156 -6.144531 8.210938 -6.949219 6.347656 -6.949219 L 0.484375 -6.949219 L 0.484375 0 L 3.046875 0 L 3.046875 -2.300781 L 4.484375 -2.300781 C 4.96875 -2.300781 5.386719 -2.097656 5.675781 -1.679688 L 6.085938 -1.007812 C 6.492188 -0.425781 7.027344 0.195312 8.09375 0.195312 Z M 3.046875 -3.726562 L 3.046875 -5.445312 L 5.570312 -5.445312 C 6.289062 -5.445312 6.714844 -5.125 6.714844 -4.589844 C 6.714844 -4.046875 6.289062 -3.726562 5.558594 -3.726562 Z M 3.046875 -3.726562 "/></g></g></g><g fill="#2b2b2b" fill-opacity="1"><g transform="translate(197.081701, 200.810717)"><g><path d="M 0 0 L 2.660156 0 L 3.183594 -1.203125 L 6.636719 -1.203125 L 7.171875 0 L 9.820312 0 L 6.445312 -6.949219 L 3.472656 -6.949219 Z M 3.667969 -2.628906 L 4.910156 -5.386719 L 4.929688 -5.386719 L 6.152344 -2.628906 Z M 3.667969 -2.628906 "/></g></g></g><g fill="#2b2b2b" fill-opacity="1"><g transform="translate(206.772137, 200.810717)"><g><path d="M 0.484375 0 L 2.902344 0 L 2.902344 -4.570312 L 2.910156 -4.570312 L 6.636719 0 L 9.714844 0 L 9.714844 -6.949219 L 7.296875 -6.949219 L 7.296875 -2.4375 L 7.289062 -2.4375 L 3.5625 -6.949219 L 0.484375 -6.949219 Z M 0.484375 0 "/></g></g></g><g fill="#2b2b2b" fill-opacity="1"><g transform="translate(216.831178, 200.810717)"><g><path d="M 0.484375 0 L 5.433594 0 C 8.140625 0 9.644531 -1.242188 9.644531 -3.472656 C 9.644531 -5.707031 8.140625 -6.949219 5.433594 -6.949219 L 0.484375 -6.949219 Z M 2.96875 -1.726562 L 2.96875 -5.230469 L 5.066406 -5.230469 C 6.40625 -5.230469 7.152344 -4.601562 7.152344 -3.472656 C 7.152344 -2.359375 6.40625 -1.726562 5.066406 -1.726562 Z M 2.96875 -1.726562 "/></g></g></g><g fill="#2b2b2b" fill-opacity="1"><g transform="translate(226.647715, 200.810717)"><g><path d="M 1.496094 0.0976562 C 2.242188 0.0976562 2.773438 -0.347656 2.773438 -0.988281 C 2.773438 -1.628906 2.242188 -2.078125 1.496094 -2.078125 C 0.757812 -2.078125 0.222656 -1.628906 0.222656 -0.988281 C 0.222656 -0.347656 0.757812 0.0976562 1.496094 0.0976562 Z M 1.496094 0.0976562 "/></g></g></g></svg>